# xmcd
# 
# Track frame offsets:
#     150
#     16455
#     27838
#     42022
#     55271
#     67296
#     83668
#     95901
#     108272
#     122251
#     137384
#     150242
#     162792
#     176591
#     190243
#     202970
#     217668
#     230904
#     243797
#     257859
#     270536
#     283339
#     298243
#     310193
# 
# Disc length: 4237
# 
# Revision: 1
# Processed by: cddbd v1.5.2PL0 Copyright (c) Steve Scherf et al.
# Submitted via: fre:ac v1.0.17
# 
DISCID=4f108b18
DTITLE=John Steinbeck - The Grapes of Wrath [CD10)
DYEAR=1939
DGENRE=Audiobook
TTITLE0=Chapter 18.29
TTITLE1=Chapter 18.30
TTITLE2=Chapter 18.31
TTITLE3=Chapter 19.01
TTITLE4=Chapter 19.02
TTITLE5=Chapter 19.03
TTITLE6=Chapter 19.04
TTITLE7=Chapter 19.05
TTITLE8=Chapter 19.06
TTITLE9=Chapter 19.07
TTITLE10=Chapter 19.08
TTITLE11=Chapter 20.01
TTITLE12=Chapter 20.02
TTITLE13=Chapter 20.03
TTITLE14=Chapter 20.04
TTITLE15=Chapter 20.05
TTITLE16=Chapter 20.06
TTITLE17=Chapter 20.07
TTITLE18=Chapter 20.08
TTITLE19=Chapter 20.09
TTITLE20=Chapter 20.10
TTITLE21=Chapter 20.11
TTITLE22=Chapter 20.12
TTITLE23=Chapter 20.13
EXTD=The Grapes of Wrath by John Steinbeck\nread by Dylan Baker recorded books 18 CDs\nnational folk country
EXTT0=
EXTT1=
EXTT2=
EXTT3=
EXTT4=
EXTT5=
EXTT6=
EXTT7=
EXTT8=
EXTT9=
EXTT10=
EXTT11=
EXTT12=
EXTT13=
EXTT14=
EXTT15=
EXTT16=
EXTT17=
EXTT18=
EXTT19=
EXTT20=
EXTT21=
EXTT22=
EXTT23=
PLAYORDER=
